<svg preserveAspectRatio="none" width="100%" height="100%" overflow="visible" style="display: block;" viewBox="0 0 20 20" fill="none" xmlns="http://www.w3.org/2000/svg">
<g id="ph:key-light">
<path id="Vector" d="M16.8086 3.19141C15.8349 2.21688 14.5596 1.60105 13.1909 1.44437C11.8223 1.28769 10.4409 1.59941 9.27208 2.32868C8.10331 3.05795 7.21613 4.16174 6.75526 5.46C6.29439 6.75825 6.28703 8.17436 6.73437 9.47734L2.35156 13.8602C2.24979 13.9616 2.1691 14.0821 2.11412 14.2149C2.05915 14.3476 2.03098 14.4899 2.03125 14.6336V16.875C2.03125 17.1651 2.14648 17.4433 2.3516 17.6484C2.55672 17.8535 2.83492 17.9688 3.125 17.9688H5.625C5.74932 17.9688 5.86855 17.9194 5.95646 17.8315C6.04436 17.7435 6.09375 17.6243 6.09375 17.5V16.0938H7.5C7.62432 16.0938 7.74355 16.0444 7.83146 15.9565C7.91936 15.8685 7.96875 15.7493 7.96875 15.625V14.2188H9.375C9.49928 14.2186 9.61843 14.1692 9.70625 14.0813L10.5227 13.2656C11.159 13.484 11.8272 13.5948 12.5 13.5938H12.5078C13.7123 13.5921 14.8892 13.2335 15.89 12.5633C16.8908 11.8931 17.6706 10.9414 18.1308 9.82828C18.591 8.71519 18.711 7.4907 18.4756 6.30944C18.2403 5.12818 17.6602 4.04316 16.8086 3.19141ZM17.6563 7.66875C17.5688 10.4156 15.2602 12.6531 12.5094 12.6563C11.8537 12.6577 11.2038 12.5338 10.5945 12.2914C10.5082 12.2538 10.4125 12.2431 10.32 12.2606C10.2274 12.2782 10.1424 12.3232 10.0758 12.3898L9.18047 13.2813H7.5C7.37568 13.2813 7.25645 13.3306 7.16854 13.4185C7.08064 13.5065 7.03125 13.6257 7.03125 13.75V15.1563H5.625C5.50068 15.1563 5.38145 15.2056 5.29354 15.2935C5.20564 15.3815 5.15625 15.5007 5.15625 15.625V17.0313H3.125C3.08356 17.0313 3.04382 17.0148 3.01451 16.9855C2.98521 16.9562 2.96875 16.9164 2.96875 16.875V14.6336C2.96872 14.5923 2.98501 14.5527 3.01406 14.5234L7.61016 9.92734C7.67678 9.86077 7.7218 9.77568 7.73936 9.68315C7.75692 9.59062 7.7462 9.49494 7.70859 9.40859C7.4656 8.79953 7.34174 8.14949 7.34375 7.49375C7.34375 4.74297 9.58438 2.43437 12.3305 2.34375C13.0362 2.32014 13.7392 2.44173 14.396 2.70097C15.0528 2.96021 15.6493 3.35158 16.1486 3.85083C16.6479 4.35008 17.0394 4.94656 17.2987 5.6033C17.5581 6.26004 17.6798 6.96305 17.6563 7.66875ZM14.8438 5.9375C14.8438 6.09202 14.7979 6.24306 14.7121 6.37154C14.6262 6.50002 14.5042 6.60015 14.3615 6.65928C14.2187 6.71841 14.0616 6.73388 13.9101 6.70374C13.7585 6.67359 13.6193 6.59919 13.5101 6.48993C13.4008 6.38067 13.3264 6.24146 13.2963 6.08991C13.2661 5.93837 13.2816 5.78128 13.3407 5.63853C13.3999 5.49577 13.5 5.37376 13.6285 5.28791C13.7569 5.20207 13.908 5.15625 14.0625 5.15625C14.2697 5.15625 14.4684 5.23856 14.6149 5.38507C14.7614 5.53159 14.8438 5.7303 14.8438 5.9375Z" fill="white"/>
</g>
</svg>
